<?xml version="1.0" encoding="UTF-8"?>
<!DOCTYPE svg PUBLIC "-//W3C//DTD SVG 1.1//EN" "http://www.w3.org/Graphics/SVG/1.1/DTD/svg11.dtd">
<svg xmlns="http://www.w3.org/2000/svg" xml:space="preserve" width="9.27735in" height="9.27736in" version="1.1" style="shape-rendering:geometricPrecision; text-rendering:geometricPrecision; image-rendering:optimizeQuality; fill-rule:evenodd; clip-rule:evenodd"
viewBox="0 0 9028 9028"
 xmlns:xlink="http://www.w3.org/1999/xlink">
 <g>
  <circle fill="#D97706" r="4514" cx="4514" cy="4514" />
  <path fill="#FEFEFE" d="M3015 6518l53 -159 0 -1 0 0 429 -1291 -472 0 170 -543 482 0 494 -1489 548 0 -1106 3330 757 9c574,7 1044,-95 1411,-493 370,-402 553,-886 553,-1453 0,-574 -184,-1056 -553,-1453 -369,-397 -836,-493 -1411,-493l-1525 -3 238 -544 1287 -13c709,0 1313,151 1815,656 498,501 744,1120 744,1850 0,33 -1,65 -1,97l421 0 -170 543 -319 0c-105,458 -329,862 -674,1210 -501,505 -1106,649 -1815,649 -390,0 -871,-8 -1480,-20l126 -388 -1 0z"/>
 </g>
</svg>
